<svg width="41" height="41" viewBox="0 0 41 41" fill="none" xmlns="http://www.w3.org/2000/svg">
<g id="Name=Private, Filled=No">
<g id="Group 101">
<path id="Vector 133" d="M24.7338 12.4639C24.9425 12.9074 25.4713 13.0978 25.9148 12.889C26.3583 12.6803 26.5487 12.1515 26.3399 11.708L24.7338 12.4639ZM13.8048 16.1865C14.6809 16.0443 14.6809 16.0447 14.681 16.0451C14.681 16.0452 14.6811 16.0456 14.6811 16.0457C14.6812 16.0461 14.6812 16.0464 14.6812 16.0465C14.6813 16.0468 14.6813 16.0467 14.6812 16.0462C14.681 16.0451 14.6806 16.0424 14.68 16.0382C14.6787 16.0296 14.6766 16.0148 14.674 15.9941C14.6687 15.9526 14.6611 15.8877 14.6536 15.8029C14.6385 15.6328 14.6236 15.3846 14.6263 15.0851C14.6318 14.4798 14.7089 13.6967 14.9783 12.9307C15.2453 12.1715 15.6926 11.4504 16.4326 10.914C17.1704 10.3793 18.2742 9.97351 19.9514 9.97351V8.19836C17.9791 8.19836 16.4899 8.68016 15.3908 9.47676C14.2941 10.2717 13.661 11.3258 13.3037 12.3418C12.9488 13.3509 12.8578 14.3429 12.8512 15.069C12.8479 15.4352 12.866 15.7418 12.8854 15.96C12.8951 16.0693 12.9052 16.157 12.9132 16.2195C12.9172 16.2508 12.9207 16.2758 12.9234 16.2941C12.9247 16.3033 12.9259 16.3108 12.9267 16.3166C12.9272 16.3195 12.9276 16.3219 12.9279 16.324C12.9281 16.325 12.9282 16.3259 12.9283 16.3267C12.9284 16.3271 12.9285 16.3276 12.9285 16.3278C12.9286 16.3282 12.9287 16.3287 13.8048 16.1865ZM19.9514 9.97351C21.4562 9.97351 22.4981 10.3005 23.2263 10.7507C23.9524 11.1996 24.4245 11.8067 24.7338 12.4639L26.3399 11.708C25.9085 10.7913 25.2234 9.89837 24.1597 9.24076C23.0981 8.58443 21.7176 8.19836 19.9514 8.19836V9.97351Z" fill="#898989"/>
<path id="Vector 134" d="M26.1644 16.6309H13.7384C12.2678 16.6309 11.0757 17.823 11.0757 19.2936V28.6131C11.0757 30.0837 12.2678 31.2758 13.7384 31.2758H26.1644C27.635 31.2758 28.8271 30.0837 28.8271 28.6131V19.2936C28.8271 17.823 27.635 16.6309 26.1644 16.6309Z" stroke="#898989" stroke-width="1.77515"/>
<circle id="Ellipse 31" cx="19.9514" cy="24.1744" r="2.66272" stroke="#898989" stroke-width="1.77515"/>
</g>
</g>
</svg>
